<?xml version="1.0" encoding="utf-8"?>
<!-- Generator: Adobe Illustrator 11.0, SVG Export Plug-In  -->
<!DOCTYPE svg PUBLIC "-//W3C//DTD SVG 1.0//EN"    "http://www.w3.org/TR/2001/REC-SVG-20010904/DTD/svg10.dtd" [
	<!ENTITY ns_flows "http://ns.adobe.com/Flows/1.0/">
	<!ENTITY ns_svg "http://www.w3.org/2000/svg">
	<!ENTITY ns_xlink "http://www.w3.org/1999/xlink">
]>
<svg  xmlns="&ns_svg;" xmlns:xlink="&ns_xlink;" xmlns:a="http://ns.adobe.com/AdobeSVGViewerExtensions/3.0/"
	 width="151" height="43" viewBox="-0.058 -0.271 151 43" xml:space="preserve">
	<defs>
	</defs>
	<g>
		<path d="M0,21.322h43.298v-7.373H0V21.322z M0,10.199h7.826V7.667h35.472V0.292H0V10.199z M7.826,25.035H0v9.936h43.297v-7.375
			H7.826V25.035z M106.094,25.035h-7.821v9.936h43.296v-7.375h-35.475V25.035z M70.794,26.805
			C69.865,25.199,55.479,0.292,55.479,0.292h-8.511l23.826,41.461L94.602,0.292h-8.521C86.082,0.292,71.719,25.199,70.794,26.805
			 M98.273,0.292v9.908h7.821V7.667h35.475V0.292H98.273z M98.273,21.322h43.297v-7.373H98.273V21.322z"/>
		<path d="M148.295,3.879c-1.102,0-1.94-0.837-1.94-1.94c0-1.102,0.839-1.939,1.94-1.939c1.103,0,1.94,0.838,1.94,1.939
			C150.236,3.042,149.398,3.879,148.295,3.879 M148.295,0.311c-0.924,0-1.628,0.705-1.628,1.629c0,0.924,0.704,1.628,1.628,1.628
			c0.926,0,1.629-0.704,1.629-1.628C149.924,1.015,149.221,0.311,148.295,0.311 M148.731,2.107l0.436,0.853h-0.424l-0.414-0.816
			h-0.409V2.96h-0.359V0.843h0.93c0.376,0,0.694,0.2,0.694,0.64C149.184,1.816,149.005,2.027,148.731,2.107 M148.478,1.193h-0.559
			v0.601h0.559c0.193,0,0.339-0.091,0.339-0.3C148.817,1.294,148.671,1.193,148.478,1.193"/>
	</g>
</svg>
